<?xml version="1.0" encoding="UTF-8" standalone="no"?>
<svg
   xmlns:dc="http://purl.org/dc/elements/1.1/"
   xmlns:cc="http://creativecommons.org/ns#"
   xmlns:rdf="http://www.w3.org/1999/02/22-rdf-syntax-ns#"
   xmlns:svg="http://www.w3.org/2000/svg"
   xmlns="http://www.w3.org/2000/svg"
   viewBox="0 0 400 400"
   height="400"
   width="400"
   xml:space="preserve"
   version="1.1"
   id="svg2"><metadata
     id="metadata8"><rdf:RDF><cc:Work
         rdf:about=""><dc:format>image/svg+xml</dc:format><dc:type
           rdf:resource="http://purl.org/dc/dcmitype/StillImage" /><dc:title></dc:title></cc:Work></rdf:RDF></metadata><defs
     id="defs6"><clipPath
       id="clipPath16"
       clipPathUnits="userSpaceOnUse"><path
         id="path18"
         d="M 0,300 500,300 500,0 0,0 0,300 Z" /></clipPath></defs><g
     transform="matrix(1.25,0,0,-1.25,0,400)"
     id="g10"><g
       style="fill:#0080ff;fill-opacity:1"
       transform="translate(-93.0251,9.175)"
       id="g12"><g
         style="fill:#0080ff;fill-opacity:1"
         clip-path="url(#clipPath16)"
         id="g14"><g
           style="fill:#0080ff;fill-opacity:1"
           transform="matrix(1.2112097,0,0,1.2112097,302.16933,207.96382)"
           id="g20"><path
             id="path22"
             style="fill:#0080ff;fill-opacity:1;fill-rule:evenodd;stroke:none"
             d="m 0,0 c -0.899,-0.5 -1.767,-1.1 -2.6,-1.8 -0.667,-0.5 -1.316,-1.067 -1.95,-1.7 l -5.599,-5.7 -5.651,5.7 c -1.433,1.4 -2.95,2.567 -4.55,3.5 -3.133,1.8 -6.633,2.7 -10.5,2.7 -3.9,0 -7.417,-0.9 -10.549,-2.7 -1.601,-0.933 -3.117,-2.1 -4.551,-3.5 -4.133,-4.133 -6.199,-9.15 -6.199,-15.05 0,-5.167 1.583,-9.65 4.75,-13.45 0.433,-0.533 0.916,-1.067 1.449,-1.6 l 35.801,-35.8 35.75,35.8 c 4.2,4.133 6.299,9.15 6.299,15.05 0,5.9 -2.099,10.917 -6.299,15.05 C 24.2,-2.1 22.7,-0.933 21.101,0 17.934,1.833 14.417,2.767 10.551,2.8 6.65,2.767 3.134,1.833 0,0 m 58.5,-47.15 c 0,-27.367 -9.683,-50.716 -29.05,-70.05 -19.333,-19.366 -42.683,-29.05 -70.05,-29.05 -27.299,0 -50.633,9.684 -70,29.05 -19.366,19.334 -29.049,42.683 -29.049,70.05 0,5.2 0.349,10.25 1.049,15.15 1.634,11.467 5.167,22.133 10.6,32 4.5,8.2 10.3,15.85 17.4,22.95 19.367,19.3 42.701,28.95 70,28.95 13.667,0 26.333,-2.417 38,-7.25 C 9.101,39.85 19.784,32.617 29.45,22.95 36.551,15.85 42.367,8.2 46.9,0 54.634,-14.1 58.5,-29.817 58.5,-47.15" /></g></g></g></g></svg>