<?xml version="1.0" encoding="UTF-8" standalone="no"?>
<!-- Created with Inkscape (http://www.inkscape.org/) -->

<svg
   xmlns:dc="http://purl.org/dc/elements/1.1/"
   xmlns:cc="http://creativecommons.org/ns#"
   xmlns:rdf="http://www.w3.org/1999/02/22-rdf-syntax-ns#"
   xmlns:svg="http://www.w3.org/2000/svg"
   xmlns="http://www.w3.org/2000/svg"
   xmlns:sodipodi="http://sodipodi.sourceforge.net/DTD/sodipodi-0.dtd"
   xmlns:inkscape="http://www.inkscape.org/namespaces/inkscape"
   id="svg2"
   version="1.1"
   inkscape:version="0.91 r13725"
   xml:space="preserve"
   width="625"
   height="375"
   viewBox="0 0 625 375"
   sodipodi:docname="free_logo_7.svg"
   inkscape:export-filename="/home/omid/Downloads/logo7/free_logo_7.ai.png"
   inkscape:export-xdpi="90"
   inkscape:export-ydpi="90"><metadata
     id="metadata8"><rdf:RDF><cc:Work
         rdf:about=""><dc:format>image/svg+xml</dc:format><dc:type
           rdf:resource="http://purl.org/dc/dcmitype/StillImage" /><dc:title></dc:title></cc:Work></rdf:RDF></metadata><defs
     id="defs6"><clipPath
       clipPathUnits="userSpaceOnUse"
       id="clipPath16"><path
         d="M 0,300 500,300 500,0 0,0 0,300 Z"
         id="path18"
         inkscape:connector-curvature="0" /></clipPath></defs><sodipodi:namedview
     pagecolor="#ffffff"
     bordercolor="#666666"
     borderopacity="1"
     objecttolerance="10"
     gridtolerance="10"
     guidetolerance="10"
     inkscape:pageopacity="0"
     inkscape:pageshadow="2"
     inkscape:window-width="1855"
     inkscape:window-height="1176"
     id="namedview4"
     showgrid="false"
     showguides="true"
     inkscape:guide-bbox="true"
     inkscape:zoom="0.5904"
     inkscape:cx="-16.937669"
     inkscape:cy="187.5"
     inkscape:window-x="1985"
     inkscape:window-y="24"
     inkscape:window-maximized="1"
     inkscape:current-layer="g10"><sodipodi:guide
       position="264.22764,45.731707"
       orientation="0,1"
       id="guide3354" /><sodipodi:guide
       position="311.65312,370.93496"
       orientation="1,0"
       id="guide3356" /></sodipodi:namedview><g
     id="g10"
     inkscape:groupmode="layer"
     inkscape:label="free_logo_7"
     transform="matrix(1.25,0,0,-1.25,0,375)"><g
       id="g12"
       style="fill:#ff2a2a"><g
         id="g14"
         clip-path="url(#clipPath16)"
         style="fill:#ff2a2a"><g
           id="g20"
           transform="translate(293.5996,198)"
           style="fill:#ff2a2a"><path
             d="m 0,0 c -0.899,-0.5 -1.767,-1.1 -2.6,-1.8 -0.667,-0.5 -1.316,-1.067 -1.95,-1.7 l -5.599,-5.7 -5.651,5.7 c -1.433,1.4 -2.95,2.567 -4.55,3.5 -3.133,1.8 -6.633,2.7 -10.5,2.7 -3.9,0 -7.417,-0.9 -10.549,-2.7 -1.601,-0.933 -3.117,-2.1 -4.551,-3.5 -4.133,-4.133 -6.199,-9.15 -6.199,-15.05 0,-5.167 1.583,-9.65 4.75,-13.45 0.433,-0.533 0.916,-1.067 1.449,-1.6 l 35.801,-35.8 35.75,35.8 c 4.2,4.133 6.299,9.15 6.299,15.05 0,5.9 -2.099,10.917 -6.299,15.05 C 24.2,-2.1 22.7,-0.933 21.101,0 17.934,1.833 14.417,2.767 10.551,2.8 6.65,2.767 3.134,1.833 0,0 m 58.5,-47.15 c 0,-27.367 -9.683,-50.716 -29.05,-70.05 -19.333,-19.366 -42.683,-29.05 -70.05,-29.05 -27.299,0 -50.633,9.684 -70,29.05 -19.366,19.334 -29.049,42.683 -29.049,70.05 0,5.2 0.349,10.25 1.049,15.15 1.634,11.467 5.167,22.133 10.6,32 4.5,8.2 10.3,15.85 17.4,22.95 19.367,19.3 42.701,28.95 70,28.95 13.667,0 26.333,-2.417 38,-7.25 C 9.101,39.85 19.784,32.617 29.45,22.95 36.551,15.85 42.367,8.2 46.9,0 54.634,-14.1 58.5,-29.817 58.5,-47.15"
             style="fill:#ff2a2a;fill-opacity:1;fill-rule:evenodd;stroke:none"
             id="path22"
             inkscape:connector-curvature="0" /></g></g></g><text
       xml:space="preserve"
       style="font-style:normal;font-weight:normal;font-size:32px;line-height:125%;font-family:sans-serif;letter-spacing:0px;word-spacing:0px;fill:#2b0000;fill-opacity:1;stroke:none;stroke-width:1px;stroke-linecap:butt;stroke-linejoin:miter;stroke-opacity:1"
       x="153.11653"
       y="-21.680218"
       id="text3350"
       sodipodi:linespacing="125%"
       transform="scale(1,-1)"><tspan
         sodipodi:role="line"
         id="tspan3352"
         x="153.11653"
         y="-21.680218">Say it Like Me</tspan></text>
</g></svg>